<svg width="151" height="30" viewBox="0 0 151 30" fill="none" xmlns="http://www.w3.org/2000/svg">
<path d="M38.0284 22L40.4432 7.45455H46.75C47.858 7.45455 48.7647 7.60369 49.4702 7.90199C50.1804 8.20028 50.6823 8.62169 50.9759 9.16619C51.2741 9.7107 51.3617 10.3523 51.2386 11.0909C51.1439 11.6212 50.9403 12.1065 50.6278 12.5469C50.3201 12.9825 49.9295 13.3518 49.456 13.6548C48.9872 13.9531 48.464 14.1591 47.8864 14.2727L47.858 14.4148C48.483 14.4337 49.0275 14.59 49.4915 14.8835C49.9555 15.1723 50.2964 15.5748 50.5142 16.0909C50.732 16.6023 50.7841 17.1989 50.6705 17.8807C50.5379 18.6761 50.2135 19.384 49.6974 20.0043C49.1813 20.6245 48.5114 21.1122 47.6875 21.4673C46.8636 21.8224 45.9261 22 44.875 22H38.0284ZM42.517 18.8466H44.3636C45.017 18.8466 45.5308 18.7211 45.9048 18.4702C46.2836 18.2192 46.5085 17.8523 46.5795 17.3693C46.6364 17.0284 46.608 16.7396 46.4943 16.5028C46.3807 16.2661 46.1889 16.0862 45.919 15.9631C45.6491 15.84 45.3106 15.7784 44.9034 15.7784H43L42.517 18.8466ZM43.4261 13.3352H45.0455C45.3864 13.3352 45.6989 13.2808 45.983 13.1719C46.267 13.063 46.5014 12.9044 46.6861 12.696C46.8707 12.4877 46.9867 12.2367 47.0341 11.9432C47.1051 11.4886 46.9962 11.143 46.7074 10.9062C46.4233 10.6695 46.0398 10.5511 45.5568 10.5511H43.8807L43.4261 13.3352ZM60.8764 12C60.919 11.5312 60.8054 11.1643 60.5355 10.8991C60.2656 10.6293 59.8111 10.4943 59.1719 10.4943C58.7647 10.4943 58.4238 10.5417 58.1491 10.6364C57.8793 10.7311 57.6686 10.8613 57.517 11.027C57.3703 11.1927 57.2779 11.3845 57.2401 11.6023C57.1974 11.7727 57.1998 11.929 57.2472 12.071C57.2992 12.2083 57.3963 12.3338 57.5384 12.4474C57.6851 12.5611 57.8769 12.6629 58.1136 12.7528C58.3551 12.8428 58.6416 12.9233 58.973 12.9943L60.1094 13.25C60.8859 13.4205 61.5369 13.6454 62.0625 13.9247C62.5928 14.1993 63.0095 14.526 63.3125 14.9048C63.6155 15.2836 63.8144 15.7074 63.9091 16.1761C64.0085 16.6449 64.0109 17.1562 63.9162 17.7102C63.7552 18.6667 63.3835 19.4763 62.8011 20.1392C62.2188 20.8021 61.4588 21.3063 60.5213 21.652C59.5838 21.9976 58.4995 22.1705 57.2685 22.1705C56.009 22.1705 54.9389 21.9834 54.0582 21.6094C53.1823 21.2306 52.5478 20.6529 52.1548 19.8764C51.7666 19.0952 51.6719 18.0985 51.8707 16.8864H55.6207C55.5639 17.3314 55.6113 17.7055 55.7628 18.0085C55.9143 18.3116 56.1581 18.5412 56.4943 18.6974C56.8305 18.8537 57.2495 18.9318 57.7514 18.9318C58.1776 18.9318 58.5421 18.8797 58.8452 18.7756C59.1482 18.6714 59.3873 18.527 59.5625 18.3423C59.7377 18.1577 59.8442 17.947 59.8821 17.7102C59.92 17.4924 59.8821 17.2983 59.7685 17.1278C59.6548 16.9574 59.4489 16.8035 59.1506 16.6662C58.8523 16.5289 58.4427 16.4034 57.9219 16.2898L56.5298 15.9773C55.294 15.6932 54.3613 15.2244 53.7315 14.571C53.1018 13.9176 52.8793 13.0227 53.0639 11.8864C53.2154 10.9583 53.5966 10.1487 54.2074 9.45739C54.8229 8.76136 55.6042 8.22159 56.5511 7.83807C57.5028 7.44981 58.5563 7.25568 59.7116 7.25568C60.8859 7.25568 61.8684 7.45218 62.6591 7.84517C63.4545 8.23816 64.0251 8.78977 64.3707 9.5C64.7211 10.2102 64.8158 11.0436 64.6548 12H60.8764ZM64.7365 22L65.2053 19.1591L71.3842 14.6705C71.7962 14.3722 72.1513 14.0928 72.4496 13.8324C72.7526 13.5672 72.9964 13.295 73.1811 13.0156C73.3658 12.7363 73.4865 12.4261 73.5433 12.0852C73.6049 11.7112 73.5765 11.3916 73.4581 11.1264C73.3445 10.8565 73.1598 10.6506 72.9041 10.5085C72.6484 10.3665 72.3407 10.2955 71.9808 10.2955C71.6162 10.2955 71.2824 10.3688 70.9794 10.5156C70.6764 10.6624 70.4231 10.8778 70.2195 11.1619C70.0206 11.446 69.888 11.7917 69.8217 12.1989H66.0717C66.2422 11.1761 66.6186 10.2955 67.201 9.55682C67.7881 8.81818 68.5315 8.25 69.4311 7.85227C70.3355 7.45455 71.3511 7.25568 72.478 7.25568C73.6428 7.25568 74.6229 7.44271 75.4183 7.81676C76.2138 8.18608 76.7891 8.70691 77.1442 9.37926C77.504 10.0516 77.6058 10.84 77.4496 11.7443C77.3549 12.303 77.1442 12.857 76.8175 13.4062C76.4955 13.9555 75.977 14.5663 75.2621 15.2386C74.5518 15.9062 73.567 16.7017 72.3075 17.625L70.7592 18.7614L70.745 18.8466H76.4268L75.9013 22H64.7365ZM83.5185 22.1989C82.3348 22.1989 81.3191 22.0024 80.4716 21.6094C79.6241 21.2116 78.9991 20.6648 78.5966 19.9688C78.1989 19.2727 78.0781 18.4725 78.2344 17.5682H82.1548C82.1027 17.8475 82.1383 18.0985 82.2614 18.321C82.3892 18.5388 82.5833 18.7093 82.8438 18.8324C83.1042 18.9555 83.4048 19.017 83.7457 19.017C84.1529 19.017 84.5199 18.9342 84.8466 18.7685C85.178 18.6027 85.4479 18.3873 85.6562 18.1222C85.8693 17.857 85.9995 17.5777 86.0469 17.2841C86.099 16.9811 86.0492 16.7348 85.8977 16.5455C85.7462 16.3513 85.5213 16.2093 85.223 16.1193C84.9247 16.0246 84.5743 15.9773 84.1719 15.9773H82.6094L83.0639 13.25H84.456C84.8584 13.25 85.2277 13.1766 85.5639 13.0298C85.9001 12.883 86.1795 12.6818 86.402 12.4261C86.6245 12.1657 86.7618 11.8722 86.8139 11.5455C86.8565 11.2945 86.8352 11.0767 86.75 10.892C86.6695 10.7027 86.5251 10.5559 86.3168 10.4517C86.1132 10.3475 85.8433 10.2955 85.5071 10.2955C85.1425 10.2955 84.7921 10.3594 84.456 10.4872C84.1198 10.6151 83.8381 10.7926 83.6108 11.0199C83.3835 11.2472 83.2486 11.5076 83.206 11.8011H79.456C79.6027 10.911 79.9697 10.125 80.5568 9.44318C81.1439 8.76136 81.8826 8.22633 82.7727 7.83807C83.6676 7.44981 84.6454 7.25568 85.706 7.25568C86.8139 7.25568 87.7562 7.45928 88.5327 7.86648C89.3092 8.27367 89.8797 8.81345 90.2443 9.4858C90.6089 10.1581 90.7249 10.892 90.5923 11.6875C90.4503 12.5445 90.0644 13.1932 89.4347 13.6335C88.8049 14.0739 88.0166 14.3343 87.0696 14.4148V14.5284C88.1018 14.6468 88.8996 15.0256 89.4631 15.6648C90.0265 16.304 90.2325 17.09 90.081 18.0227C89.9531 18.8182 89.5862 19.5308 88.9801 20.1605C88.3741 20.7902 87.5975 21.2874 86.6506 21.652C85.7083 22.0166 84.6643 22.1989 83.5185 22.1989Z" fill="#007FDB"/>
<path d="M94.9123 22H90.6509L97.8668 7.45455H103.265L105.651 22H101.39L99.9691 11.4602H99.8555L94.9123 22ZM95.0827 16.2614H103.094L102.583 19.2159H94.5714L95.0827 16.2614ZM107.052 22L109.467 7.45455H119.95L119.41 10.6364H112.876L112.478 13.1364H118.472L117.933 16.3182H111.938L111.54 18.8182H118.046L117.506 22H107.052ZM121.908 7.45455H126.823L128.84 15.6932H129.01L133.755 7.45455H138.669L136.255 22H132.391L133.783 13.5909H133.669L129.067 21.8864H126.738L124.891 13.5341H124.777L123.357 22H119.493L121.908 7.45455Z" fill="white"/>
<g clip-path="url(#clip0_132_24)">
<path d="M15.0009 30C12.9771 30 11.0125 29.6028 9.16123 28.8209C7.37463 28.066 5.77137 26.984 4.39279 25.6072C3.016 24.2304 1.93398 22.6254 1.17908 20.8388C0.39722 18.9893 0 17.0247 0 15.0009C0 12.9771 0.39722 11.0125 1.17908 9.16122C1.93398 7.37463 3.016 5.77137 4.39279 4.39279C5.76958 3.0142 7.37463 1.93398 9.16123 1.17908C11.0107 0.39722 12.9753 0 15.0009 0C17.0265 0 18.9893 0.39722 20.8406 1.17908C22.6272 1.93398 24.2304 3.016 25.609 4.39279C26.9858 5.76958 28.0678 7.37463 28.8227 9.16122C29.6046 11.0107 30.0018 12.9753 30.0018 15.0009C30.0018 17.0265 29.6046 18.9893 28.8227 20.8406C28.0678 22.6272 26.9858 24.2304 25.609 25.609C24.2322 26.9858 22.6272 28.0678 20.8406 28.8227C18.9893 29.6028 17.0247 30 15.0009 30ZM15.0009 1.55114C13.1855 1.55114 11.4241 1.90702 9.76694 2.60799C8.16548 3.2856 6.72758 4.25439 5.49278 5.49098C4.25798 6.72578 3.2874 8.16548 2.60979 9.76514C1.90881 11.4223 1.55293 13.1838 1.55293 14.9991C1.55293 16.8145 1.90881 18.5759 2.60979 20.2331C3.2874 21.8345 4.25619 23.2724 5.49278 24.5072C6.72758 25.742 8.16728 26.7126 9.76694 27.3902C11.4241 28.0912 13.1855 28.4471 15.0009 28.4471C16.8162 28.4471 18.5777 28.0912 20.2349 27.3902C21.8363 26.7126 23.2742 25.7438 24.509 24.5072C25.7438 23.2724 26.7144 21.8345 27.392 20.2331C28.093 18.5759 28.4489 16.8145 28.4489 14.9991C28.4489 13.1838 28.093 11.4223 27.392 9.76514C26.7144 8.16368 25.7456 6.72578 24.509 5.49098C23.2742 4.25619 21.8363 3.2856 20.2349 2.60799C18.5777 1.90702 16.8162 1.55114 15.0009 1.55114Z" fill="white"/>
<path d="M15.0009 30C12.1089 30 9.75616 27.6472 9.75616 24.7553C9.75616 22.2677 7.73231 20.2438 5.24474 20.2438C2.35277 20.2438 0 17.8911 0 15.0009C0 12.1089 2.35277 9.75616 5.24474 9.75616C7.73231 9.75616 9.75616 7.73231 9.75616 5.24474C9.75616 2.35276 12.1089 0 15.0009 0C17.8929 0 20.2456 2.35276 20.2456 5.24474C20.2456 7.73231 22.2695 9.75616 24.7571 9.75616C27.649 9.75616 30.0018 12.1089 30.0018 15.0009C30.0018 17.8929 27.649 20.2456 24.7571 20.2456C22.2695 20.2456 20.2456 22.2695 20.2456 24.7571C20.2438 27.6472 17.8911 30 15.0009 30ZM15.0009 0.731532C12.5133 0.731532 10.4895 2.75538 10.4895 5.24295C10.4895 8.13492 8.13672 10.4877 5.24474 10.4877C2.75717 10.4877 0.733329 12.5115 0.733329 14.9991C0.733329 17.4867 2.75717 19.5105 5.24474 19.5105C8.13672 19.5105 10.4895 21.8633 10.4895 24.7553C10.4895 27.2428 12.5133 29.2667 15.0009 29.2667C17.4885 29.2667 19.5123 27.2428 19.5123 24.7553C19.5123 21.8633 21.8651 19.5105 24.7571 19.5105C27.2446 19.5105 29.2685 17.4867 29.2685 14.9991C29.2685 12.5115 27.2446 10.4877 24.7571 10.4877C21.8651 10.4877 19.5123 8.13492 19.5123 5.24295C19.5123 2.75538 17.4885 0.731532 15.0009 0.731532Z" fill="white"/>
<path d="M21.6602 27.0757C20.2133 27.0757 18.8527 26.5132 17.8299 25.4887C16.2698 23.9285 13.7301 23.9285 12.1682 25.4887C11.1455 26.5114 9.78489 27.0757 8.33801 27.0757C6.89112 27.0757 5.53051 26.5132 4.5078 25.4887C3.48509 24.466 2.92072 23.1053 2.92072 21.6585C2.92072 20.2116 3.48689 18.8545 4.5096 17.83C5.26629 17.0733 5.68148 16.0686 5.68148 14.9992C5.68148 13.9297 5.26449 12.925 4.5096 12.1683C2.39768 10.0564 2.39768 6.61981 4.5096 4.50969C5.5323 3.48698 6.89292 2.92261 8.3398 2.92261C9.78669 2.92261 11.1473 3.48519 12.17 4.50969C13.7301 6.06981 16.2698 6.06981 17.8317 4.50969C19.9437 2.39777 23.3802 2.39777 25.4904 4.50969C26.5131 5.5324 27.0774 6.89301 27.0774 8.3399C27.0774 9.78679 26.5149 11.1474 25.4904 12.1701C24.7337 12.9268 24.3185 13.9315 24.3185 15.001C24.3185 16.0704 24.7355 17.0751 25.4904 17.8318C27.6023 19.9438 27.6023 23.3803 25.4904 25.4905C24.4677 26.5132 23.107 27.0757 21.6602 27.0757ZM15.0009 22.9076C16.3885 22.9076 17.7742 23.4361 18.8311 24.4911C19.5878 25.2478 20.5925 25.663 21.662 25.663C22.7314 25.663 23.7361 25.246 24.4928 24.4911C26.0529 22.931 26.0529 20.3913 24.4928 18.8294C23.4701 17.8067 22.9057 16.4461 22.9057 14.9992C22.9057 13.5523 23.4683 12.1917 24.4928 11.169C25.2495 10.4123 25.6647 9.40754 25.6647 8.3381C25.6647 7.26866 25.2477 6.26393 24.4928 5.50723C22.9327 3.94711 20.393 3.94711 18.8311 5.50723C16.7174 7.62095 13.2826 7.62095 11.1707 5.50903C10.414 4.75234 9.40924 4.33714 8.3398 4.33714C7.27036 4.33714 6.26563 4.75413 5.50894 5.50903C3.94881 7.06915 3.94881 9.60885 5.50894 11.1708C6.53164 12.1935 7.09602 13.5541 7.09602 15.001C7.09602 16.4479 6.53344 17.8085 5.50894 18.8312C4.75224 19.5879 4.33705 20.5926 4.33705 21.662C4.33705 22.7315 4.75404 23.7362 5.50894 24.4929C6.26563 25.2496 7.27036 25.6648 8.3398 25.6648C9.40924 25.6648 10.414 25.2478 11.1707 24.4929C12.2257 23.4361 13.6133 22.9076 15.0009 22.9076Z" fill="white"/>
<path d="M14.9326 10.9046C14.7744 10.5343 14.4958 10.2719 14.0932 10.1137L12.3264 9.41096C10.8741 10.0958 9.87835 11.1868 9.28342 12.6984C9.1612 13.0147 9.05695 13.331 8.98685 13.6474C9.31937 13.6474 9.63391 13.7175 9.9844 13.8595L12.2581 14.7743C12.6607 14.9145 13.0274 14.9145 13.394 14.7743C13.7607 14.6341 14.0231 14.3699 14.1813 13.9835L14.9685 12.0315C15.1249 11.6595 15.1069 11.273 14.9326 10.9046ZM12.5546 20.0119L15.4574 21.173C17.4165 21.0328 18.9371 20.1539 20.0569 18.5704C20.0389 18.4302 20.0048 18.272 19.9347 18.0779C19.7603 17.7094 19.4799 17.4273 19.0773 17.2871L16.9438 16.4081C16.8881 16.4369 16.8324 16.4531 16.7839 16.4585C16.7174 16.4764 16.6473 16.4872 16.5754 16.4872C16.1476 16.4872 15.7989 16.1385 15.7989 15.7072C15.7989 15.2758 16.1458 14.9271 16.5754 14.9271C16.9349 14.9271 17.2368 15.1734 17.3249 15.5059L19.444 16.3722C19.8286 16.5124 20.2133 16.5124 20.6159 16.3722C20.7902 16.2841 20.9484 16.1961 21.0886 16.0559C21.3852 14.3322 21.0365 12.7864 20.0048 11.3449L16.5412 9.97354L16.8378 9.23482L16.8989 9.07306C15.8672 8.77469 14.7744 8.69022 13.7068 8.93646L14.4419 9.23482C15.0889 9.46309 15.5437 9.91962 15.8402 10.5361C16.1206 11.1508 16.1368 11.7673 15.8924 12.382L15.1231 14.352C14.8607 14.9667 14.4239 15.407 13.793 15.6533C13.164 15.8995 12.5331 15.8995 11.904 15.6533L9.63031 14.7384C8.69029 14.431 8.77656 14.8121 8.84486 15.5544C8.92754 16.4459 9.18636 17.2925 9.64649 18.0977C10.2594 19.1887 11.2282 20.0676 12.3462 20.6122" fill="#00A0DB"/>
<mask id="mask0_132_24" style="mask-type:luminance" maskUnits="userSpaceOnUse" x="8" y="8" width="14" height="14">
<path d="M14.9326 10.9046C14.7744 10.5343 14.4958 10.2719 14.0932 10.1137L12.3264 9.41096C10.8741 10.0958 9.87835 11.1868 9.28342 12.6984C9.1612 13.0147 9.05695 13.331 8.98685 13.6474C9.31937 13.6474 9.63391 13.7175 9.9844 13.8595L12.2581 14.7743C12.6607 14.9145 13.0274 14.9145 13.394 14.7743C13.7607 14.6341 14.0231 14.3699 14.1813 13.9835L14.9685 12.0315C15.1249 11.6595 15.1069 11.273 14.9326 10.9046ZM12.5546 20.0119L15.4574 21.173C17.4165 21.0328 18.9371 20.1539 20.0569 18.5704C20.0389 18.4302 20.0048 18.272 19.9347 18.0779C19.7603 17.7094 19.4799 17.4273 19.0773 17.2871L16.9438 16.4081C16.8881 16.4369 16.8324 16.4531 16.7839 16.4585C16.7174 16.4764 16.6473 16.4872 16.5754 16.4872C16.1476 16.4872 15.7989 16.1385 15.7989 15.7072C15.7989 15.2758 16.1458 14.9271 16.5754 14.9271C16.9349 14.9271 17.2368 15.1734 17.3249 15.5059L19.444 16.3722C19.8286 16.5124 20.2133 16.5124 20.6159 16.3722C20.7902 16.2841 20.9484 16.1961 21.0886 16.0559C21.3852 14.3322 21.0365 12.7864 20.0048 11.3449L16.5412 9.97354L16.8378 9.23482L16.8989 9.07306C15.8672 8.77469 14.7744 8.69022 13.7068 8.93646L14.4419 9.23482C15.0889 9.46309 15.5437 9.91962 15.8402 10.5361C16.1206 11.1508 16.1368 11.7673 15.8924 12.382L15.1231 14.352C14.8607 14.9667 14.4239 15.407 13.793 15.6533C13.164 15.8995 12.5331 15.8995 11.904 15.6533L9.63031 14.7384C8.69029 14.431 8.77656 14.8121 8.84486 15.5544C8.92754 16.4459 9.18636 17.2925 9.64649 18.0977C10.2594 19.1887 11.2282 20.0676 12.3462 20.6122" fill="white"/>
</mask>
<g mask="url(#mask0_132_24)">
<path d="M21.3851 8.68848H8.69208V21.6116H21.3851V8.68848Z" fill="#00A0DB"/>
</g>
</g>
<defs>
<clipPath id="clip0_132_24">
<rect width="30" height="30" fill="white"/>
</clipPath>
</defs>
</svg>
